<svg xmlns="http://www.w3.org/2000/svg" width="60.035" height="58.766" viewBox="0 0 60.035 58.766"><defs><style>.a{fill:#fff;}</style></defs><g transform="translate(-273.543 -504.617)"><path class="a" d="M328.918,538.7a33.112,33.112,0,0,0-4.253-1.809,20.877,20.877,0,0,0,3.509-11.587c0-9.964-5.522-20.686-17.66-20.686a17.1,17.1,0,0,0-7.278,1.538,19.322,19.322,0,0,0-5.47-.783c-8.681,0-14.3,5.078-14.3,12.909a16.24,16.24,0,0,0,.34,3.3,5.5,5.5,0,0,0-.487,2.942,5.065,5.065,0,0,0,1.551,3.429,2.179,2.179,0,0,0,1.256.542,15.571,15.571,0,0,0,5.077,7.8,7.121,7.121,0,0,1-1.85,3.51c-1.781.3-2.876.567-2.9.567-.757.191-1.554.434-2.5.73a39.23,39.23,0,0,0-5.561,2.295,8.848,8.848,0,0,0-4.848,7.887v2.4a5.929,5.929,0,0,0,3.158,5.293c3.808,2.025,10.548,4.4,21.051,4.4s17.245-2.378,21.039-4.4a5.894,5.894,0,0,0,2.282-2.107,35.512,35.512,0,0,0,9.466-3.213,5.709,5.709,0,0,0,3.039-5.1v-2.268A8.507,8.507,0,0,0,328.918,538.7Zm-18.4-32.273c10.882,0,15.838,9.8,15.838,18.877a19.057,19.057,0,0,1-3.485,10.992c-.591-.163-1.12-.323-1.631-.459a27.665,27.665,0,0,0-2.837-.674,6.874,6.874,0,0,1-1.674-3.106,14.3,14.3,0,0,0,4.2-6.67,2.192,2.192,0,0,0,1.123-.515,4.693,4.693,0,0,0,1.416-3.16c.177-2.052-.675-3.725-2.093-4.132a3.069,3.069,0,0,0-1.2-.053,6.677,6.677,0,0,0-2.5-3.188c-1.689-1.079-3.794-1.214-6.252-.376a11.453,11.453,0,0,0-5.725-6.778A15.066,15.066,0,0,1,310.514,506.426Zm1.012,34.676c-.945-.3-1.742-.539-2.472-.73a23.3,23.3,0,0,0-3.009-.675,7.1,7.1,0,0,1-1.77-3.4,14.247,14.247,0,0,0,2.512-2.594,8.978,8.978,0,0,0,3.644.811,9.335,9.335,0,0,0,4.726-1.322,8.62,8.62,0,0,0,1.812,3.1c-.15,1.378-1.311,3.565-2.73,5.8C313.377,541.752,312.472,541.425,311.526,541.1Zm.634-16.582a5.643,5.643,0,0,0-.445-2.862,16.313,16.313,0,0,0,.351-3.377,15.562,15.562,0,0,0-.216-2.566,5.639,5.639,0,0,1,4.552,0,4.944,4.944,0,0,1,2.268,3.106,1,1,0,0,0,.365.65.969.969,0,0,0,.81.135,1.919,1.919,0,0,0,.268-.135,1.1,1.1,0,0,1,.772-.136c.39.108.876.946.755,2.215a2.981,2.981,0,0,1-.755,1.917c-.094.08-.163.107-.23.08a.984.984,0,0,0-.782,0,.89.89,0,0,0-.5.594,12.3,12.3,0,0,1-4.43,7.022,7.471,7.471,0,0,1-7.13.973,17.687,17.687,0,0,0,1.541-3.645,2.173,2.173,0,0,0,1.255-.542A5.039,5.039,0,0,0,312.16,524.52Zm-14.394-17.311c7.7,0,12.491,4.239,12.491,11.072a15.039,15.039,0,0,1-.135,1.809c-.081-.025-.15-.053-.216-.08a2.989,2.989,0,0,0-1.377-.028c-.216-.647-.567-1.673-1.148-3.293-.014-.028-.041-.056-.055-.081a.852.852,0,0,0-.094-.163,1.116,1.116,0,0,0-.122-.135c-.028-.025-.028-.053-.052-.053a1.445,1.445,0,0,1-.15-.083h0a8.787,8.787,0,0,0-9.695.083,7.139,7.139,0,0,1-7.724,0,.192.192,0,0,0-.122-.055.13.13,0,0,0-.094-.053c-.028-.027-.041-.027-.053-.027a.449.449,0,0,0-.19-.028h-.175a.336.336,0,0,0-.149.055.385.385,0,0,0-.177.053,1.241,1.241,0,0,1-.133.083c-.041.052-.1.08-.135.133a.243.243,0,0,0-.042.055c-.027.027-.027.052-.052.108a1.137,1.137,0,0,0-.069.108c-.581,1.62-.932,2.646-1.148,3.293a2.989,2.989,0,0,0-1.377.028c-.053.027-.108.055-.161.08a15.464,15.464,0,0,1-.121-1.809C285.291,511.448,290.069,507.209,297.766,507.209Zm-10.1,20.066a.925.925,0,0,0-.525-.6.977.977,0,0,0-.824,0c-.094.028-.216-.08-.285-.135a3.3,3.3,0,0,1-.9-2.188c-.136-1.565.473-2.456.932-2.591a1.183,1.183,0,0,1,.932.163,2.087,2.087,0,0,0,.282.133.95.95,0,0,0,.81-.133.933.933,0,0,0,.365-.65c.069-.268.514-1.565,1-2.942a9.116,9.116,0,0,0,3.9.89,8.52,8.52,0,0,0,4.928-1.512,7.131,7.131,0,0,1,7.494-.108c.581,1.62,1.176,3.349,1.256,3.672a.9.9,0,0,0,1.175.783,2.085,2.085,0,0,0,.282-.133,1.219,1.219,0,0,1,.946-.163c.445.135,1.054,1.026.918,2.591a3.387,3.387,0,0,1-.89,2.188.513.513,0,0,1-.379.11.9.9,0,0,0-1.27.62,13.7,13.7,0,0,1-4.969,7.831,8.506,8.506,0,0,1-10.207,0A13.717,13.717,0,0,1,287.666,527.275Zm5.158,10.1a9.963,9.963,0,0,0,9.831,0,8.956,8.956,0,0,0,1.972,3.484c-.459,1.433-3.714,4.079-6.875,6.079-3.172-2-6.427-4.674-6.886-6.079A8.717,8.717,0,0,0,292.824,537.374Zm-17.472,16.313v-2.4a7.02,7.02,0,0,1,3.874-6.266,34.956,34.956,0,0,1,5.293-2.16c.9-.3,1.662-.515,2.392-.73.025,0,.9-.216,2.348-.459,1.162,2.646,5.835,5.752,7.589,6.833v13.045c-10.127-.136-16.419-2.647-19.295-4.16A4.165,4.165,0,0,1,275.352,553.687Zm44.789,0a4.164,4.164,0,0,1-2.2,3.7c-2.876,1.513-9.153,4.024-19.28,4.16V548.5c1.781-1.106,6.521-4.267,7.616-6.941.769.163,1.537.351,2.3.567.728.191,1.485.406,2.4.7a32.758,32.758,0,0,1,5.293,2.188,7.019,7.019,0,0,1,3.875,6.266Zm11.626-5.132a3.9,3.9,0,0,1-2.08,3.484,31.243,31.243,0,0,1-7.845,2.782,5.332,5.332,0,0,0,.121-1.134v-2.4a9.124,9.124,0,0,0-.16-1.593,37.655,37.655,0,0,0,4.59-1.269.914.914,0,0,0-.594-1.729,41.852,41.852,0,0,1-4.511,1.242A8.935,8.935,0,0,0,317.1,543.4c-.379-.188-.771-.4-1.161-.567a21.393,21.393,0,0,0,2.727-5.752,17.781,17.781,0,0,1,2.079.514c.7.161,1.43.377,2.282.648a35.3,35.3,0,0,1,5.049,2.079,6.706,6.706,0,0,1,3.687,5.968Z"/><path class="a" d="M314.969,551.9a47.409,47.409,0,0,1-7.331,1.863.9.9,0,0,0-.744,1.054.915.915,0,0,0,.891.758.26.26,0,0,0,.149-.028,48.1,48.1,0,0,0,7.63-1.919.914.914,0,1,0-.6-1.728Z"/></g></svg>