<svg xmlns="http://www.w3.org/2000/svg" width="55.798" height="58.696" viewBox="0 0 55.798 58.696"><defs><style>.a{fill:#fff;}</style></defs><g transform="translate(-447.454 -562.501)"><path class="a" d="M502.412,562.5H448.294a.843.843,0,0,0-.84.853v53.827a.838.838,0,0,0,.84.827h28.2l.678,2.585a.83.83,0,0,0,.6.579.6.6,0,0,0,.214.025.892.892,0,0,0,.6-.226l2.934-2.963h20.892a.836.836,0,0,0,.84-.827V563.354A.842.842,0,0,0,502.412,562.5Zm-53.265,1.68h52.411v6.777H449.147Zm15.66,34.907,14.354-14.354a17.952,17.952,0,0,1,4.492-3.261,15.547,15.547,0,0,0,9.449,9.459,18.271,18.271,0,0,1-3.251,4.491L475.5,609.778Zm6.111,8.508-2.9,4.818a7.357,7.357,0,0,1-5.859-5.874l4.818-2.886Zm-7.566-9.462-7.5-1.983,6.712-6.725,11.934-2.408Zm31.631-13.549a17.587,17.587,0,0,1-1.167,4.766,13.8,13.8,0,0,1-8.593-8.582,17.274,17.274,0,0,1,4.767-1.18l5.545-.552Zm-16.562,34.153-1.994-7.529,11.142-11.116-2.423,11.918Zm23.137-2.41H483.213l3.3-3.313a.638.638,0,0,0,.226-.426l3-14.681,1.3-1.3a19.234,19.234,0,0,0,3.965-5.746.382.382,0,0,0,.088-.175c.013-.025,0-.051.013-.051a19.333,19.333,0,0,0,1.557-5.872l.663-6.575a.892.892,0,0,0-.25-.7.828.828,0,0,0-.678-.226l-6.573.653a19.732,19.732,0,0,0-5.887,1.554H483.9a.884.884,0,0,0-.113.077,19.294,19.294,0,0,0-5.823,3.988l-1.316,1.306-14.68,2.986a.969.969,0,0,0-.427.252l-7.93,7.93a.8.8,0,0,0-.213.8.818.818,0,0,0,.588.6l9.184,2.434,2.572,2.585-4.931,2.96a.853.853,0,0,0-.413.8,9.094,9.094,0,0,0,7.994,7.979h.074a.868.868,0,0,0,.727-.4l2.95-4.944,2.586,2.585,1.3,4.919H449.147v-43.69h52.411Z"/><path class="a" d="M497.367,566.967a.852.852,0,0,0,.6,1.454.851.851,0,0,0,.591-1.454A.9.9,0,0,0,497.367,566.967Z"/><path class="a" d="M493.315,566.741a.821.821,0,0,0-.84.827.842.842,0,0,0,.84.853.852.852,0,0,0,.853-.853A.832.832,0,0,0,493.315,566.741Z"/><path class="a" d="M488.07,566.967a.846.846,0,0,0,0,1.205.881.881,0,0,0,.6.249.937.937,0,0,0,.6-.249.852.852,0,0,0-1.2-1.205Z"/><path class="a" d="M482.486,595.724a3.637,3.637,0,0,0,2.585-6.221,3.655,3.655,0,1,0-2.585,6.221Zm-1.38-5.018a1.952,1.952,0,1,1,2.76,2.762,1.927,1.927,0,0,1-2.76,0A1.949,1.949,0,0,1,481.106,590.706Z"/><path class="a" d="M477.807,596.78a3.647,3.647,0,0,0-5.17,5.145,3.647,3.647,0,1,0,5.17-5.145Zm-1.205,3.965a1.96,1.96,0,1,1-2.76-2.785,2,2,0,0,1,2.76,0A1.977,1.977,0,0,1,476.6,600.745Z"/></g></svg>