<svg xmlns="http://www.w3.org/2000/svg" width="60.049" height="53.608" viewBox="0 0 60.049 53.608"><defs><style>.a{fill:#fff;}</style></defs><g transform="translate(-663.811 -205.37)"><path class="a" d="M719.322,205.37H668.363a4.567,4.567,0,0,0-4.552,4.539v36.943a4.572,4.572,0,0,0,4.552,4.563h17.3v5.727h-6.225a.936.936,0,0,0-.918.918.919.919,0,0,0,.918.918h28.816a.909.909,0,0,0,.9-.918.926.926,0,0,0-.9-.918h-6.225v-5.727h17.3a4.56,4.56,0,0,0,4.538-4.563v-5.617a.9.9,0,1,0-1.809,0v2.89H695.5V231.808a6.267,6.267,0,0,0-6.264-6.264H675.586a6.27,6.27,0,0,0-6.266,6.264v12.317h-3.686V209.909a2.748,2.748,0,0,1,2.729-2.73h50.959a2.748,2.748,0,0,1,2.729,2.73v.188a.9.9,0,1,0,1.809,0v-.188A4.555,4.555,0,0,0,719.322,205.37ZM700.2,257.142H687.47v-5.727H700.2Zm-29.071-25.334a4.459,4.459,0,0,1,4.455-4.455h6v12.262a.9.9,0,1,0,1.808,0V227.353h5.849a4.461,4.461,0,0,1,4.455,4.455v12.317h-3.536V232.754a.921.921,0,0,0-.919-.918.91.91,0,0,0-.907.918v11.371H676.505V232.754a.92.92,0,0,0-.919-.918.907.907,0,0,0-.9.918v11.371h-3.551Zm-.9,14.126h51.824v.918a2.729,2.729,0,0,1-2.729,2.727H668.363a2.729,2.729,0,0,1-2.729-2.727v-.918Z"/><path class="a" d="M676.72,217.522a5.6,5.6,0,1,0,5.606-5.589A5.628,5.628,0,0,0,676.72,217.522Zm9.4,0a3.794,3.794,0,1,1-3.794-3.781A3.8,3.8,0,0,1,686.12,217.522Z"/><path class="a" d="M721,213.741H702.173A2.859,2.859,0,0,0,699.3,216.6v1.485h-4.7a.91.91,0,0,0-.8.486.861.861,0,0,0,.042.919l5.279,7.994a.971.971,0,0,1,.174.567V234.7a2.88,2.88,0,0,0,2.876,2.89H721a2.877,2.877,0,0,0,2.862-2.89V216.6A2.856,2.856,0,0,0,721,213.741Zm1.053,20.957A1.046,1.046,0,0,1,721,235.751H702.173a1.046,1.046,0,0,1-1.053-1.053v-6.643a2.691,2.691,0,0,0-.484-1.565l-4.336-6.562h3.9a.928.928,0,0,0,.918-.918V216.6a1.062,1.062,0,0,1,1.053-1.051H721a1.062,1.062,0,0,1,1.053,1.051Z"/><path class="a" d="M717.5,219.278H705.672a.936.936,0,0,0-.919.918.918.918,0,0,0,.919.918H717.5a.906.906,0,0,0,.9-.918A.924.924,0,0,0,717.5,219.278Z"/><path class="a" d="M717.5,224.734H705.672a.936.936,0,0,0-.919.918.92.92,0,0,0,.919.918H717.5a.908.908,0,0,0,.9-.918A.924.924,0,0,0,717.5,224.734Z"/><path class="a" d="M712.95,230.215h-7.278a.906.906,0,1,0,0,1.811h7.278a.906.906,0,0,0,0-1.811Z"/></g></svg>